
<svg xmlns="http://www.w3.org/2000/svg" xml:space="preserve" width="123.144mm" height="26.2133mm" version="1.1" style="shape-rendering:geometricPrecision; text-rendering:geometricPrecision; image-rendering:optimizeQuality; fill-rule:evenodd; clip-rule:evenodd"
viewBox="0 0 12300.16 2618.3"
 xmlns:xlink="http://www.w3.org/1999/xlink">
 <defs>
  <style type="text/css">
   <![CDATA[
    .fil10 {fill:#242B59}
    .fil8 {fill:#242B59}
    .fil9 {fill:#242B59;fill-rule:nonzero}
    .fil7 {fill:#242B59;fill-rule:nonzero}
    .fil6 {fill:url(#id0)}
    .fil0 {fill:url(#id1)}
    .fil1 {fill:url(#id2)}
    .fil2 {fill:url(#id3)}
    .fil5 {fill:url(#id4);fill-rule:nonzero}
    .fil3 {fill:url(#id5);fill-rule:nonzero}
    .fil4 {fill:url(#id6);fill-rule:nonzero}
   ]]>
  </style>
  <linearGradient id="id0" gradientUnits="userSpaceOnUse" x1="5860.3" y1="988.26" x2="6667.68" y2="988.26">
   <stop offset="0" style="stop-opacity:1; stop-color:#F3AD58"/>
   <stop offset="1" style="stop-opacity:1; stop-color:#FCCD7C"/>
  </linearGradient>
  <linearGradient id="id1" gradientUnits="userSpaceOnUse" xlink:href="#id0" x1="-0" y1="1283.41" x2="2100.11" y2="1283.41">
  </linearGradient>
  <linearGradient id="id2" gradientUnits="userSpaceOnUse" xlink:href="#id0" x1="305.5" y1="617.2" x2="1801.44" y2="617.2">
  </linearGradient>
  <linearGradient id="id3" gradientUnits="userSpaceOnUse" xlink:href="#id0" x1="305.54" y1="2001.08" x2="1801.47" y2="2001.08">
  </linearGradient>
  <linearGradient id="id4" gradientUnits="userSpaceOnUse" xlink:href="#id0" x1="4859.85" y1="1098.94" x2="5934.04" y2="1098.94">
  </linearGradient>
  <linearGradient id="id5" gradientUnits="userSpaceOnUse" xlink:href="#id0" x1="2385.88" y1="899.75" x2="3658.04" y2="899.75">
  </linearGradient>
  <linearGradient id="id6" gradientUnits="userSpaceOnUse" xlink:href="#id0" x1="3666.53" y1="1111.86" x2="4836.44" y2="1111.86">
  </linearGradient>
 </defs>
 <g id="Camada_x0020_1">
  <metadata id="CorelCorpID_0Corel-Layer"/>
  <g id="_2689185237008">
   <polygon class="fil0" points="1215.03,1726.49 2100.11,918.92 2100.11,389.96 1215.03,1197.53 885.09,840.36 -0,1647.94 -0,2176.9 885.09,1369.31 "/>
   <path class="fil1" d="M305.5 1234.39l0.27 -928.31c-0.99,-74.22 -4.11,-306.09 294.83,-306.09l862.54 0c0.95,0 338.14,0 338.14,355.05 1.02,35.34 5.78,386.44 -304.31,386.44l-432.59 0 0 150.13 -164.06 -176.18 0 -138.02 596.65 0c152.25,0 140.57,-218.9 140.57,-219.49l-0.32 -2.89c0,-190.98 -173.62,-190.98 -174.08,-190.98l-862.54 0c-133.26,0 -131.85,106.15 -131.42,140.12 2.59,299.06 0.39,482.68 0.39,781.94l-164.07 148.26z"/>
   <path class="fil2" d="M1801.47 1383.89l-0.26 928.3c0.98,74.22 4.11,306.09 -294.83,306.09l-862.54 0c-0.96,0 -338.15,0 -338.15,-355.04 -1.02,-35.34 -5.77,-386.45 304.32,-386.45l432.58 0 0 -150.12 164.07 176.18 0 138.01 -596.65 0c-152.26,0 -140.58,218.91 -140.58,219.5l0.33 2.89c0,190.97 173.62,190.97 174.08,190.97l862.54 0c133.26,0 131.84,-106.15 131.42,-140.11 -2.6,-299.06 -0.4,-482.69 -0.4,-781.95l164.07 -148.25z"/>
   <path class="fil3" d="M2385.88 1160.68l411.65 -28.35c8.82,73.22 27.11,129.2 54.55,167.25 44.76,62.1 108.46,93.32 191.45,93.32 61.75,0 109.45,-15.79 142.77,-47.73 33.64,-31.94 50.3,-68.91 50.3,-110.91 0,-39.83 -15.67,-75.72 -47.37,-107.31 -31.69,-31.59 -105.53,-61.02 -221.5,-89.38 -190.14,-46.66 -325.39,-109.1 -406.42,-186.99 -81.67,-77.52 -122.51,-176.59 -122.51,-297.18 0,-78.97 20.92,-153.62 62.73,-223.97 41.82,-70.7 104.55,-125.97 188.51,-166.18 83.95,-40.19 198.96,-60.29 344.99,-60.29 179.35,0 315.91,36.61 410.01,110.18 94.08,73.22 149.96,189.87 167.93,349.94l-407.72 26.56c-10.79,-69.99 -33.65,-120.96 -68.28,-152.54 -34.96,-31.94 -82.98,-47.73 -144.08,-47.73 -50.3,0 -88.53,11.85 -114.01,35.18 -25.49,23.32 -38.23,52.04 -38.23,85.78 0,24.4 10.46,46.3 31.03,66.03 19.93,20.46 68.27,39.12 144.73,56.71 189.48,44.86 325.06,90.45 406.73,136.38 82.01,45.95 141.8,102.65 179.03,170.84 37.25,67.84 55.87,143.92 55.87,228.28 0,98.7 -24.82,189.86 -74.48,273.49 -49.98,83.26 -119.24,146.79 -208.76,189.86 -89.2,43.07 -201.58,64.61 -337.49,64.61 -238.48,0 -403.79,-50.6 -495.6,-151.46 -91.8,-100.85 -143.75,-228.98 -155.84,-384.39z"/>
   <path class="fil4" d="M4070.33 914.82l-372.44 -43.07c14.04,-71.78 34.3,-128.13 60.77,-169.04 26.46,-41.28 64.36,-76.81 114.34,-106.96 35.62,-21.89 84.62,-38.77 147.02,-50.61 62.4,-11.85 130.02,-17.95 202.88,-17.95 116.64,0 210.07,7.18 280.96,21.54 70.57,14.36 129.7,44.51 176.75,90.1 33.32,31.58 59.46,76.44 78.4,134.23 19.29,57.78 28.77,113.05 28.77,165.82l0 493.86c0,52.77 2.94,94.04 9.14,123.83 5.87,29.8 19.28,67.84 39.53,114.14l-364.93 0c-14.7,-28.72 -24.18,-50.25 -28.76,-65.32 -4.25,-15.07 -8.81,-38.41 -13.38,-70.35 -50.96,53.84 -101.6,92.24 -152.24,115.22 -68.94,30.86 -148.98,46.3 -240.12,46.3 -121.21,0 -213.34,-30.86 -276.06,-92.95 -63.06,-61.74 -94.41,-138.19 -94.41,-228.64 0,-85.06 22.53,-155.05 67.95,-209.97 45.4,-54.91 129.04,-95.83 250.9,-122.39 146.03,-32.3 240.78,-54.91 284.23,-68.19 43.45,-12.93 89.51,-29.79 137.87,-50.97 0,-52.76 -9.81,-89.37 -29.74,-110.54 -19.6,-21.18 -54.23,-31.58 -103.89,-31.58 -63.71,0 -111.4,11.13 -143.42,33.74 -24.83,17.94 -44.75,50.96 -60.11,99.77zm337.16 223.96c-53.58,21.18 -109.45,39.84 -167.93,56.35 -79.07,23.32 -129.37,46.3 -150.29,68.91 -21.89,23.33 -32.66,49.89 -32.66,79.68 0,34.1 10.77,62.09 32.01,83.62 21.57,21.54 52.92,32.3 94.41,32.3 43.46,0 83.96,-11.84 121.54,-35.17 37.24,-23.33 63.71,-51.68 79.38,-85.42 15.68,-33.74 23.53,-77.53 23.53,-131.37l0 -68.91z"/>
   <path class="fil5" d="M4859.85 553.04l363.29 0 0 181.97c54.23,-74.65 108.79,-127.77 164.33,-159.73 55.54,-31.94 122.84,-48.09 202.56,-48.09 107.81,0 191.77,35.18 252.86,105.89 60.77,70.35 91.15,179.45 91.15,326.97l0 710.65 -392.04 0 0 -614.82c0,-70.35 -11.77,-119.88 -35.29,-148.95 -23.52,-29.08 -56.51,-43.79 -98.99,-43.79 -46.72,0 -84.94,19.74 -114.02,58.86 -29.08,39.47 -43.78,109.82 -43.78,211.75l0 536.94 -390.08 0 0 -1117.66z"/>
   <path class="fil6" d="M6438.31 279.97l0 245.58 173.58 0 0 314.43 -173.58 0 0 422.97c0,47.35 4.24,79.01 12.44,94.4 12.47,23.33 34.59,35.18 65.79,35.54l1.48 0 113.4 0c19.99,0 36.26,16.27 36.26,36.23l0 231.2 0 0.92 0 0.49 -0.03 0c-0.79,19.3 -16.73,34.82 -36.23,34.82l-197.34 0c-2.04,0 -4.01,-0.17 -5.93,-0.49 -10.21,0.32 -20.32,0.49 -30.32,0.49 -97.03,0 -168.59,-13.65 -214.63,-40.92 -45.75,-27.3 -79.91,-68.87 -101.95,-124.56 -22.02,-55.56 -33.01,-146.09 -33.01,-270.62l0 -420.47 -67.6 0c-12.34,-98.68 -43.01,-195.9 -108.11,-271.28 -4.01,-4.62 -8.07,-9.15 -12.21,-13.54l0 -29.61 187.92 0 0 -238.42 390.09 -7.15z"/>
   <path class="fil7" d="M2411.9 2605.81l0 -744.83 152.67 0 0 744.83 -152.67 0zm406.52 0l0 -744.83 148.57 0 312.03 497.42 0 -497.42 142.33 0 0 744.83 -153.75 0 -306.85 -485.63 0 485.63 -142.32 0zm1061.19 0l-271.93 -744.83 164.32 0 193.42 551.34 184.17 -551.34 164.53 0 -269.12 744.83 -165.39 0zm616.99 0l0 -744.83 562.81 0 0 125.87 -410.15 0 0 164.36 381.68 0 0 125.87 -381.68 0 0 202.85 424.38 0 0 125.87 -577.04 0zm772.45 -242.38l148.8 -14.56c16.82,95.01 72.24,142.51 166.05,142.51 46.58,0 83.01,-9.71 109.75,-29.13 26.53,-19.42 39.89,-43.52 39.89,-72.3 0,-16.99 -4.74,-31.21 -14.01,-43.17 -9.28,-11.8 -23.5,-21.51 -42.48,-29.13 -18.98,-7.63 -65.12,-20.47 -138.01,-38.32 -65.33,-15.95 -113.22,-33.12 -143.61,-51.67 -30.2,-18.73 -54.34,-43.17 -72.25,-73.34 -17.9,-30.34 -26.96,-62.94 -26.96,-97.79 0,-40.57 11.44,-77.15 34.52,-109.57 23.06,-32.42 54.77,-57.04 95.31,-73.68 40.53,-16.47 90.57,-24.79 150.09,-24.79 89.48,0 159.35,19.42 209.59,58.42 50.25,39.01 76.77,94.84 79.8,167.31l-153.97 6.24c-6.69,-39.7 -21.35,-67.61 -43.77,-83.39 -22.42,-15.77 -54.34,-23.75 -95.96,-23.75 -41.41,0 -73.33,6.94 -95.75,20.64 -22.42,13.69 -33.64,30.68 -33.64,51.14 0,20.12 10.35,36.93 30.83,50.63 20.49,13.69 67.28,29.13 139.95,45.95 77.2,18.2 132.85,37.27 167.12,57.03 34.29,19.94 60.6,45.43 78.72,76.63 18.11,31.38 27.17,69.35 27.17,114.09 0,64.5 -24.8,118.93 -74.18,162.79 -49.59,44.04 -127.01,66.06 -232.24,66.06 -186.09,0 -289.6,-84.96 -310.74,-254.86zm1020.88 242.38l0 -618.95 -225.12 0 0 -125.87 602.92 0 0 125.87 -225.13 0 0 618.95 -152.67 0z"/>
   <path class="fil8" d="M11182.29 699.46l-21.3 0 0 -146.45c142.48,0 194.31,-0.23 336.67,-0.23 90.95,0 165.25,11.09 222.24,33.73 56.76,22.51 98.9,40.1 125.54,74.19 26.65,34.09 46.04,77.05 56.37,129.19 6.36,32.18 8.93,77.57 8.93,161.14l0 251.26c0,175.52 3.77,286.4 11.29,333.41 7.18,47.03 22.21,91.88 44.1,134.96l-188.78 0c-18.11,-39.83 -29.73,-86.5 -34.85,-139.98 -67.03,59.95 -131.68,101.95 -193.57,126.69 -61.85,24.77 -128.23,36.98 -199.34,36.98 -116.94,0 -206.89,-29.8 -269.83,-89.75 -62.91,-59.55 -94.34,-136.01 -94.34,-228.97 0,-54.57 11.95,-104.44 35.54,-149.66 23.92,-45.22 55.06,-81.12 93.35,-108.38 38.63,-27.31 81.71,-48.1 129.94,-62.12 35.58,-9.68 89.26,-19 160.72,-28.36 145.66,-17.95 253.39,-39.83 322.14,-64.96 0.69,-25.83 1.02,-29.41 1.02,-36.23 0,-76.82 -17.13,-130.99 -51.29,-162.59 -61.3,-56.7 -143.69,-63.89 -222.34,-63.89 -90.73,0 -181.5,0 -272.22,0zm545.86 411.31c-65.66,28 -164.14,51.68 -295.43,71.05 -74.58,11.16 -127.21,23.69 -158,37.7 -30.77,14.01 -54.37,34.46 -71.14,61.01 -16.77,26.94 -25.3,56.73 -25.3,89.74 0,49.88 18.08,91.88 54.7,125.25 36.59,33.37 89.92,50.27 160.06,50.27 69.41,0 131.29,-15.82 185.67,-47.74 54.05,-31.6 94.04,-75.01 119.31,-129.94 19.52,-42.69 29.11,-105.53 29.11,-188.42l1.02 -68.91z"/>
   <polygon class="fil9" points="11939.89,275.21 11939.89,128.76 12119.65,128.76 12300.16,128.76 12300.16,275.21 12300.16,1670.68 12119.65,1670.68 12119.65,275.21 "/>
   <g>
    <path class="fil10" d="M10240.05 128.76c67.5,0 122.2,52.26 122.2,116.75 0,64.49 -54.7,116.74 -122.2,116.74 -67.5,0 -122.21,-52.26 -122.21,-116.74 0,-64.5 54.71,-116.75 122.21,-116.75z"/>
    <g>
     <polygon class="fil9" points="10149.76,1670.68 10149.76,553.01 10330.35,553.01 10330.35,1670.68 "/>
     <path class="fil9" d="M10856.38 1509.17l77.81 0 69.89 0 0 176.57 -170 0 0 -0.16 -12.08 0.16c-65.3,0 -115.91,-10.76 -152.19,-32.65 -35.87,-21.88 -61.2,-50.23 -75.9,-85.77 -14.69,-35.54 -21.85,-110.19 -21.85,-223.95l0 -643.9 -588.81 0 0 -146.45 588.81 0 0 -276.36 180.54 -113.8 0 390.16 352.06 0 0 146.45 -352.06 0 0 654.66c0,54.18 3.09,89 9.55,104.45 6.14,15.42 16.41,27.63 30.81,36.95 13.88,8.7 33.57,13.35 59.07,13.65l1.24 0 1.25 0 0.92 0 0.95 0z"/>
    </g>
   </g>
   <path class="fil9" d="M9073.02 2099.23l0 -1546.22 164.13 0 0 146.81c38.63,-56.7 82.43,-99.42 131.29,-127.78 48.56,-28.35 107.74,-42.72 177.16,-42.72 90.96,0 170.96,24.41 240.39,73.56 69.4,48.83 121.71,118.1 157.31,207.12 35.21,89.36 53,186.97 53,293.59 0,113.77 -19.5,216.44 -58.47,307.95 -38.98,91.15 -95.75,161.15 -170.27,209.95 -74.22,48.46 -152.55,72.88 -234.62,72.88 -60.18,0 -114.19,-13.28 -161.74,-39.83 -47.87,-26.58 -86.85,-59.95 -117.63,-100.51l0 545.21 -180.54 0zm164.13 -980.57c0,143.23 27.7,249.09 82.76,317.63 55.42,68.58 122.39,103.04 201.08,103.04 80,0 148.35,-35.54 205.12,-106.62 57.12,-71.08 85.54,-180.9 85.54,-329.84 0,-142.12 -27.69,-248.37 -83.44,-319.08 -55.72,-70.72 -122.1,-105.9 -199.38,-105.9 -76.58,0 -144.31,37.71 -203.11,112.72 -59.16,75.37 -88.57,184.48 -88.57,328.04z"/>
   <path class="fil9" d="M8783.41 1530.7c-67,59.95 -131.65,101.95 -193.54,126.69 -61.89,24.77 -128.2,36.98 -199.34,36.98 -116.95,0 -206.89,-29.8 -269.83,-89.75 -62.91,-59.55 -94.34,-136.01 -94.34,-228.97 0,-54.57 11.92,-104.44 35.54,-149.66 23.95,-45.22 55.06,-81.12 93.35,-108.38 38.66,-27.31 81.71,-48.1 129.98,-62.12 35.5,-9.68 89.19,-19 160.68,-28.36 145.66,-17.95 253.43,-39.83 322.1,-64.96 0.69,-25.83 1.06,-42.33 1.06,-49.15 0,-76.82 -17.13,-131 -51.29,-162.59 -46.17,-42.73 -114.92,-63.9 -205.84,-63.9 -85.18,0 -148.09,15.79 -188.41,47.03 -40.72,31.2 -70.46,86.5 -89.95,166.17l-176.48 -25.82c16.08,-79.35 42.4,-143.59 79.38,-192.39 36.92,-48.83 90.21,-86.14 160,-112.72 69.43,-26.18 150.45,-39.47 242.1,-39.47 90.95,0 165.18,11.13 222.27,33.73 56.77,22.61 98.84,50.63 125.51,84.73 26.65,34.09 45.45,77.14 56.4,129.18 5.81,32.32 8.9,90.48 8.9,174.08l0 251.26c0,175.52 3.74,286.4 11.29,333.41 7.15,47.03 22.24,91.88 44.1,134.96l-188.74 0c-18.15,-39.83 -29.8,-86.5 -34.92,-139.98zm-14.33 -419.92c-65.66,28 -164.11,51.68 -295.43,71.05 -74.55,11.16 -127.21,23.69 -158.03,37.7 -30.78,14.01 -54.38,34.46 -71.14,61.01 -16.74,26.94 -25.27,56.73 -25.27,89.74 0,49.88 18.11,91.88 54.74,125.25 36.55,33.37 89.91,50.27 159.99,50.27 69.4,0 131.32,-15.82 185.69,-47.74 54.01,-31.6 94.01,-75.01 119.34,-129.94 19.49,-42.69 29.04,-105.53 29.04,-188.42l1.06 -68.91z"/>
   <path class="fil9" d="M7739.51 1129.77l194.91 51.72c-40.69,167.62 -113.87,295.03 -219.56,382.94 -105.66,87.94 -234.92,132.11 -387.79,132.11 -157.97,0 -286.53,-33.77 -385.69,-101.59 -99.2,-67.46 -174.41,-165.45 -226.02,-293.58 -51.65,-128.5 -77.64,-265.96 -77.64,-413.13 0,-160.42 29.08,-300.4 87.55,-419.91 58.47,-119.54 141.59,-210.34 249.25,-272.41 107.73,-62.12 226.42,-92.96 355.64,-92.96 147.03,0 270.51,39.11 370.36,117.7 100.18,78.62 169.94,188.8 209.26,330.92l-190.81 47.39c-33.87,-111.99 -83.41,-193.8 -148.06,-244.79 -64.62,-51.32 -146.02,-76.78 -244.17,-76.78 -112.49,0 -206.86,28.35 -282.43,85.05 -75.6,56.7 -128.95,133.16 -159.34,228.62 -30.81,95.85 -46.21,194.54 -46.21,296.11 0,131.03 18.15,245.52 54.38,343.13 36.29,97.98 92.66,170.86 169.25,219.3 76.65,48.46 159.41,72.52 248.59,72.52 108.77,0 200.43,-33.04 275.63,-98.71 75.24,-66.05 126.2,-163.67 152.88,-293.62z"/>
  </g>
 </g>
</svg>
